<svg
  xmlns="http://www.w3.org/2000/svg"
  viewBox="0 0 1000 780"
  width="1000"
  height="780"
  font-family="system-ui, sans-serif"
>
  <defs>
    <marker
      id="sa"
      markerWidth="10"
      markerHeight="7"
      refX="10"
      refY="3.5"
      orient="auto"
    >
      <polygon points="0 0, 10 3.5, 0 7" fill="#374151" />
    </marker>
  </defs>

  <!-- Background -->
  <rect width="1000" height="780" fill="#ffffff" />

  <!-- Title -->
  <text
    x="500"
    y="36"
    text-anchor="middle"
    font-size="18"
    font-weight="700"
    fill="#1e40af"
  >Triggerfish — System Architecture</text>

  <!-- Layer 1: The Reef (dashed border) -->
  <rect
    x="320"
    y="56"
    width="360"
    height="50"
    rx="8"
    fill="#faf5ff"
    stroke="#9333ea"
    stroke-width="1.5"
    stroke-dasharray="6,3"
  />
  <text
    x="500"
    y="78"
    text-anchor="middle"
    font-size="14"
    font-weight="600"
    fill="#7c3aed"
  >The Reef</text>
  <text x="500" y="96" text-anchor="middle" font-size="11" fill="#9333ea"
  >Skill marketplace — discover, install, publish</text>

  <!-- Arrow -->
  <line
    x1="500"
    y1="106"
    x2="500"
    y2="124"
    stroke="#374151"
    stroke-width="1.2"
    marker-end="url(#sa)"
  />

  <!-- Layer 2: Channels row -->
  <rect
    x="40"
    y="128"
    width="920"
    height="70"
    rx="8"
    fill="#dbeafe"
    stroke="#93c5fd"
    stroke-width="1.5"
  />
  <text
    x="500"
    y="150"
    text-anchor="middle"
    font-size="14"
    font-weight="600"
    fill="#1e40af"
  >Channel Adapters</text>

  <!-- Channel boxes inside -->
  <rect
    x="56"
    y="158"
    width="84"
    height="30"
    rx="6"
    fill="#ffffff"
    stroke="#93c5fd"
    stroke-width="1"
  />
  <text x="98" y="178" text-anchor="middle" font-size="11" fill="#1e40af"
  >WhatsApp</text>

  <rect
    x="150"
    y="158"
    width="84"
    height="30"
    rx="6"
    fill="#ffffff"
    stroke="#93c5fd"
    stroke-width="1"
  />
  <text x="192" y="178" text-anchor="middle" font-size="11" fill="#1e40af"
  >Telegram</text>

  <rect
    x="244"
    y="158"
    width="70"
    height="30"
    rx="6"
    fill="#ffffff"
    stroke="#93c5fd"
    stroke-width="1"
  />
  <text x="279" y="178" text-anchor="middle" font-size="11" fill="#1e40af"
  >Slack</text>

  <rect
    x="324"
    y="158"
    width="76"
    height="30"
    rx="6"
    fill="#ffffff"
    stroke="#93c5fd"
    stroke-width="1"
  />
  <text x="362" y="178" text-anchor="middle" font-size="11" fill="#1e40af"
  >Discord</text>

  <rect
    x="410"
    y="158"
    width="70"
    height="30"
    rx="6"
    fill="#ffffff"
    stroke="#93c5fd"
    stroke-width="1"
  />
  <text x="445" y="178" text-anchor="middle" font-size="11" fill="#1e40af"
  >Signal</text>

  <rect
    x="490"
    y="158"
    width="80"
    height="30"
    rx="6"
    fill="#ffffff"
    stroke="#93c5fd"
    stroke-width="1"
  />
  <text x="530" y="178" text-anchor="middle" font-size="11" fill="#1e40af"
  >WebChat</text>

  <rect
    x="580"
    y="158"
    width="70"
    height="30"
    rx="6"
    fill="#ffffff"
    stroke="#93c5fd"
    stroke-width="1"
  />
  <text x="615" y="178" text-anchor="middle" font-size="11" fill="#1e40af"
  >Email</text>

  <rect
    x="660"
    y="158"
    width="56"
    height="30"
    rx="6"
    fill="#ffffff"
    stroke="#93c5fd"
    stroke-width="1"
  />
  <text x="688" y="178" text-anchor="middle" font-size="11" fill="#1e40af"
  >CLI</text>

  <rect
    x="726"
    y="158"
    width="70"
    height="30"
    rx="6"
    fill="#ffffff"
    stroke="#93c5fd"
    stroke-width="1"
  />
  <text x="761" y="178" text-anchor="middle" font-size="11" fill="#1e40af"
  >Voice</text>

  <rect
    x="806"
    y="158"
    width="84"
    height="30"
    rx="6"
    fill="#ffffff"
    stroke="#93c5fd"
    stroke-width="1"
  />
  <text x="848" y="178" text-anchor="middle" font-size="11" fill="#1e40af"
  >Tide Pool</text>

  <!-- Arrow -->
  <line
    x1="500"
    y1="198"
    x2="500"
    y2="218"
    stroke="#374151"
    stroke-width="1.2"
    marker-end="url(#sa)"
  />

  <!-- Layer 3: Channel Router -->
  <rect
    x="300"
    y="222"
    width="400"
    height="44"
    rx="8"
    fill="#f3f4f6"
    stroke="#d1d5db"
    stroke-width="1.5"
  />
  <text
    x="500"
    y="249"
    text-anchor="middle"
    font-size="14"
    font-weight="600"
    fill="#374151"
  >Channel Router</text>

  <!-- Arrow -->
  <line
    x1="500"
    y1="266"
    x2="500"
    y2="286"
    stroke="#374151"
    stroke-width="1.2"
    marker-end="url(#sa)"
  />

  <!-- Layer 4: Gateway + Notification Service -->
  <rect
    x="120"
    y="290"
    width="760"
    height="60"
    rx="8"
    fill="#2563eb"
    stroke="#1e40af"
    stroke-width="2"
  />
  <text
    x="410"
    y="324"
    text-anchor="middle"
    font-size="15"
    font-weight="600"
    fill="#ffffff"
  >Gateway</text>
  <text x="700" y="324" text-anchor="middle" font-size="13" fill="#bfdbfe"
  >WebSocket Control Plane + Notification Service</text>

  <!-- Arrow -->
  <line
    x1="500"
    y1="350"
    x2="500"
    y2="376"
    stroke="#374151"
    stroke-width="1.2"
    marker-end="url(#sa)"
  />

  <!-- Layer 5: Three columns -->
  <!-- Session Manager -->
  <rect
    x="60"
    y="380"
    width="260"
    height="100"
    rx="8"
    fill="#f3f4f6"
    stroke="#d1d5db"
    stroke-width="1.5"
  />
  <rect x="60" y="380" width="260" height="34" rx="8" fill="#e5e7eb" />
  <rect x="60" y="402" width="260" height="12" fill="#e5e7eb" />
  <text
    x="190"
    y="403"
    text-anchor="middle"
    font-size="14"
    font-weight="600"
    fill="#374151"
  >Session Manager</text>
  <text x="190" y="432" text-anchor="middle" font-size="12" fill="#6b7280"
  >Taint tracking</text>
  <text x="190" y="450" text-anchor="middle" font-size="12" fill="#6b7280"
  >Session isolation</text>
  <text x="190" y="468" text-anchor="middle" font-size="12" fill="#6b7280"
  >Lineage tracking</text>

  <!-- Policy Engine -->
  <rect
    x="340"
    y="380"
    width="320"
    height="100"
    rx="8"
    fill="#2563eb"
    stroke="#1e40af"
    stroke-width="1.5"
  />
  <rect x="340" y="380" width="320" height="34" rx="8" fill="#1e40af" />
  <rect x="340" y="402" width="320" height="12" fill="#1e40af" />
  <text
    x="500"
    y="403"
    text-anchor="middle"
    font-size="14"
    font-weight="600"
    fill="#ffffff"
  >Policy Engine</text>
  <text x="500" y="432" text-anchor="middle" font-size="12" fill="#bfdbfe"
  >8 enforcement hooks</text>
  <text x="500" y="450" text-anchor="middle" font-size="12" fill="#bfdbfe"
  >Classification rules</text>
  <text x="500" y="468" text-anchor="middle" font-size="12" fill="#bfdbfe"
  >No-write-down enforcement</text>

  <!-- Agent Loop -->
  <rect
    x="680"
    y="380"
    width="260"
    height="100"
    rx="8"
    fill="#f3f4f6"
    stroke="#d1d5db"
    stroke-width="1.5"
  />
  <rect x="680" y="380" width="260" height="34" rx="8" fill="#e5e7eb" />
  <rect x="680" y="402" width="260" height="12" fill="#e5e7eb" />
  <text
    x="810"
    y="403"
    text-anchor="middle"
    font-size="14"
    font-weight="600"
    fill="#374151"
  >Agent Loop</text>
  <text x="810" y="432" text-anchor="middle" font-size="12" fill="#6b7280"
  >LLM orchestration</text>
  <text x="810" y="450" text-anchor="middle" font-size="12" fill="#6b7280"
  >Tool dispatch</text>
  <text x="810" y="468" text-anchor="middle" font-size="12" fill="#6b7280"
  >Multi-provider support</text>

  <!-- Arrows down from three columns -->
  <line
    x1="190"
    y1="480"
    x2="190"
    y2="516"
    stroke="#374151"
    stroke-width="1.2"
    marker-end="url(#sa)"
  />
  <line
    x1="500"
    y1="480"
    x2="500"
    y2="516"
    stroke="#374151"
    stroke-width="1.2"
    marker-end="url(#sa)"
  />
  <line
    x1="810"
    y1="480"
    x2="810"
    y2="516"
    stroke="#374151"
    stroke-width="1.2"
    marker-end="url(#sa)"
  />

  <!-- Layer 6: Middle services row -->
  <rect
    x="60"
    y="520"
    width="260"
    height="56"
    rx="8"
    fill="#f3f4f6"
    stroke="#d1d5db"
    stroke-width="1.5"
  />
  <text
    x="190"
    y="545"
    text-anchor="middle"
    font-size="13"
    font-weight="500"
    fill="#374151"
  >Memory Store</text>
  <text x="190" y="564" text-anchor="middle" font-size="11" fill="#6b7280"
  >FTS5 + classification gating</text>

  <rect
    x="340"
    y="520"
    width="320"
    height="56"
    rx="8"
    fill="#f3f4f6"
    stroke="#d1d5db"
    stroke-width="1.5"
  />
  <text
    x="500"
    y="545"
    text-anchor="middle"
    font-size="13"
    font-weight="500"
    fill="#374151"
  >MCP Servers + Plugin Sandbox</text>
  <text x="500" y="564" text-anchor="middle" font-size="11" fill="#6b7280"
  >Tool providers + Pyodide WASM</text>

  <rect
    x="680"
    y="520"
    width="260"
    height="56"
    rx="8"
    fill="#f3f4f6"
    stroke="#d1d5db"
    stroke-width="1.5"
  />
  <text
    x="810"
    y="545"
    text-anchor="middle"
    font-size="13"
    font-weight="500"
    fill="#374151"
  >Scheduler</text>
  <text x="810" y="564" text-anchor="middle" font-size="11" fill="#6b7280"
  >Cron, triggers, webhooks</text>

  <!-- Arrows down -->
  <line
    x1="190"
    y1="576"
    x2="190"
    y2="610"
    stroke="#374151"
    stroke-width="1.2"
    marker-end="url(#sa)"
  />
  <line
    x1="500"
    y1="576"
    x2="500"
    y2="610"
    stroke="#374151"
    stroke-width="1.2"
    marker-end="url(#sa)"
  />
  <line
    x1="810"
    y1="576"
    x2="810"
    y2="610"
    stroke="#374151"
    stroke-width="1.2"
    marker-end="url(#sa)"
  />

  <!-- Layer 7: Exec Environment row -->
  <rect
    x="60"
    y="614"
    width="400"
    height="50"
    rx="8"
    fill="#f3f4f6"
    stroke="#d1d5db"
    stroke-width="1.5"
  />
  <text
    x="260"
    y="638"
    text-anchor="middle"
    font-size="13"
    font-weight="500"
    fill="#374151"
  >Exec Environment</text>
  <text x="260" y="654" text-anchor="middle" font-size="11" fill="#6b7280"
  >Agent workspaces, code execution</text>

  <rect
    x="480"
    y="614"
    width="460"
    height="50"
    rx="8"
    fill="#f3f4f6"
    stroke="#d1d5db"
    stroke-width="1.5"
  />
  <text
    x="710"
    y="638"
    text-anchor="middle"
    font-size="13"
    font-weight="500"
    fill="#374151"
  >Browser Manager + Web Fetch</text>
  <text x="710" y="654" text-anchor="middle" font-size="11" fill="#6b7280"
  >CDP automation, SSRF prevention, domain classification</text>

  <!-- Arrow down -->
  <line
    x1="500"
    y1="664"
    x2="500"
    y2="694"
    stroke="#374151"
    stroke-width="1.2"
    marker-end="url(#sa)"
  />

  <!-- Layer 8: StorageProvider -->
  <rect
    x="120"
    y="698"
    width="760"
    height="50"
    rx="8"
    fill="#f3f4f6"
    stroke="#9ca3af"
    stroke-width="2"
  />
  <text
    x="500"
    y="728"
    text-anchor="middle"
    font-size="15"
    font-weight="600"
    fill="#374151"
  >StorageProvider</text>
  <text x="820" y="728" text-anchor="middle" font-size="11" fill="#6b7280"
  >SQLite / KV</text>
</svg>
